<?xml version="1.0" encoding="utf-8"?>
<!-- Generator: Adobe Illustrator 14.0.0, SVG Export Plug-In . SVG Version: 6.00 Build 43363)  -->
<!DOCTYPE svg PUBLIC "-//W3C//DTD SVG 1.1//EN" "http://www.w3.org/Graphics/SVG/1.1/DTD/svg11.dtd">
<svg version="1.1" id="Layer_1" xmlns="http://www.w3.org/2000/svg" xmlns:xlink="http://www.w3.org/1999/xlink" x="0px" y="0px"
	 width="200px" height="130px" viewBox="211 330.25 200 130" enable-background="new 211 330.25 200 130" xml:space="preserve">
<g>
	<g>
		<g>
			<g>
				<polyline fill="#8E8E91" points="306.953,337.98 326.33,337.98 302.408,366.824 328.484,398.904 308.227,398.904 
					288.05,372.479 287.89,372.479 287.89,398.904 272.262,398.904 272.262,337.98 287.89,337.98 287.89,363.109 288.05,363.109 
					306.953,337.98 				"/>
				<path fill="#8E8E91" d="M260.402,353.654c-2.871-2.424-6.541-4.039-10.369-4.039c-2.871,0-6.699,1.694-6.699,5.09
					c0,3.555,4.225,4.932,6.938,5.818l3.987,1.211c8.373,2.506,14.834,6.789,14.834,16.645c0,6.062-1.436,12.283-6.221,16.402
					c-4.707,4.043-11.008,5.737-17.068,5.737c-7.574,0-14.99-2.586-21.135-6.95l6.699-12.769c3.908,3.479,8.533,6.308,13.879,6.308
					c3.667,0,7.576-1.859,7.576-6.146c0-4.44-6.143-5.979-9.49-6.947c-9.811-2.827-16.27-5.414-16.27-17.209
					c0-12.362,8.691-20.442,20.736-20.442c6.061,0,13.48,1.938,18.819,5.01L260.402,353.654"/>
				<polyline fill="#8E8E91" points="357.275,354.35 346.445,369.656 346.445,398.904 330.814,398.904 330.814,369.656 
					308.646,337.98 327.385,337.98 338.633,354.543 349.879,337.98 364.512,337.98 375.76,354.543 387.004,337.98 405.748,337.98 
					383.576,369.656 383.576,398.904 367.941,398.904 367.941,369.656 357.275,354.35 				"/>
			</g>
		</g>
		<g>
			<g>
				<path fill="#8E8E91" d="M253.187,412.5h-1.307c0,0-11.504,30.207-12.283,32.254c-0.8-2.039-12.658-32.254-12.658-32.254h-2.043
					l13.836,35.279h1.747l13.439-35.279H253.187z"/>
				<path fill="#8E8E91" d="M273.965,411.684c-11.257,0-16.296,9.271-16.296,18.455c0,9.188,5.039,18.457,16.296,18.457
					c11.257,0,16.296-9.27,16.296-18.457C290.262,420.953,285.223,411.684,273.965,411.684z M273.965,446.627
					c-8.605,0-14.229-6.471-14.328-16.488c0.099-10.016,5.723-16.487,14.328-16.487c8.607,0,14.231,6.475,14.329,16.493
					C288.196,440.154,282.572,446.627,273.965,446.627z"/>
				<path fill="#8E8E91" d="M311.357,412.5h-12h-0.504v35.279h11.016c8.017,0,16.584-4.636,16.584-17.642
					C326.454,414.219,315.896,412.5,311.357,412.5z M310.109,445.813c0,0-8.38,0-9.289,0c0-0.963,0-30.383,0-31.346
					c0.916,0,10.296,0,10.296,0c6.099,0,13.367,2.719,13.367,15.672C324.486,441.695,317.061,445.813,310.109,445.813z"/>
				<path fill="#8E8E91" d="M347.016,427.639c0.725-0.639,17.18-15.139,17.18-15.139h-1.334h-1.629c0,0-21.51,18.857-23.066,20.223
					c0-1.991,0-20.223,0-20.223h-1.969v35.279h1.969c0,0,0-11.982,0-12.42c0.311-0.275,6.658-5.89,7.325-6.479
					c0.642,0.723,16.809,18.898,16.809,18.898h2.646C364.945,447.779,347.663,428.367,347.016,427.639z"/>
				<path fill="#8E8E91" d="M386.393,412.5h-0.344h-1.587l-14.329,35.279h2.191c0,0,4.32-10.685,4.561-11.279
					c0.641,0,16.148,0,16.791,0c0.24,0.598,4.513,11.279,4.513,11.279h2.139L386.393,412.5z M377.674,434.531
					c0.492-1.228,7-17.461,7.744-19.314c0.721,1.861,7.008,18.099,7.479,19.314C391.615,434.531,378.973,434.531,377.674,434.531z"
					/>
			</g>
		</g>
	</g>
	<path fill="#8E8E91" d="M402.193,444.752c0-1.432,1.071-2.536,2.472-2.536c1.384,0,2.456,1.104,2.456,2.536
		c0,1.464-1.072,2.568-2.456,2.568C403.266,447.32,402.193,446.216,402.193,444.752z M401.649,444.752
		c0,1.72,1.376,3.008,3.016,3.008c1.632,0,3-1.288,3-3.008c0-1.688-1.368-2.976-3-2.976
		C403.025,441.776,401.649,443.064,401.649,444.752z M403.497,446.512h0.544v-1.504h0.576l0.952,1.504h0.584l-1-1.544
		c0.521-0.056,0.92-0.318,0.92-0.952c0-0.672-0.393-1-1.225-1h-1.353L403.497,446.512L403.497,446.512z M404.041,443.456h0.721
		c0.367,0,0.769,0.072,0.769,0.536c0,0.552-0.439,0.576-0.92,0.576h-0.568L404.041,443.456L404.041,443.456z"/>
</g>
<path fill="#8E8E91" d="M0,792"/>
</svg>
